<svg version="1.1" id="Layer_1" xmlns="http://www.w3.org/2000/svg" xmlns:xlink="http://www.w3.org/1999/xlink" x="0px" y="0px"
	 width="100%" viewBox="0 0 1024 1024" enable-background="new 0 0 1024 1024" xml:space="preserve">
<path fill="#000000" opacity="1.000000" stroke="none" 
	d="
M370.711121,174.999908 
	C370.710510,165.834488 370.689819,157.169006 370.729126,148.503784 
	C370.735840,147.021103 370.736511,145.449585 371.206940,144.079407 
	C371.853760,142.195541 373.441040,141.082504 375.503540,141.396500 
	C377.510895,141.702118 377.350067,143.471725 377.371460,144.957275 
	C377.539062,156.604706 378.088135,168.265411 377.710907,179.895798 
	C377.424500,188.726562 378.526276,197.529205 377.663055,206.358276 
	C377.241547,210.669754 378.985260,213.157074 384.048035,212.796570 
	C390.015015,212.371689 390.822327,211.987991 390.833038,206.221558 
	C390.867676,187.557709 390.845825,168.893738 390.853790,150.229813 
	C390.854431,148.731216 390.796600,147.218048 390.977417,145.737457 
	C391.259735,143.425354 392.242188,141.359222 394.873291,141.317398 
	C397.857452,141.269974 397.600616,143.913910 397.610077,145.750153 
	C397.710815,165.240555 397.843201,184.732971 397.648010,204.221649 
	C397.569946,212.014389 398.550171,213.261688 405.772644,212.607391 
	C409.846252,212.238373 411.006012,210.276291 410.973755,206.408279 
	C410.826385,188.745453 410.897888,171.080780 410.893402,153.416779 
	C410.892914,151.417130 410.875580,149.416641 410.925964,147.418045 
	C411.002716,144.371811 411.720245,141.221008 415.354797,141.397324 
	C419.011810,141.574722 417.979584,145.073013 417.988312,147.343750 
	C418.062408,166.673798 418.074402,186.004547 417.977234,205.334442 
	C417.955353,209.688812 417.927765,213.333405 424.067200,212.893768 
	C427.500031,212.647949 427.017700,215.891541 427.024841,218.112900 
	C427.072449,232.943695 427.416016,247.788574 426.871338,262.599731 
	C426.608459,269.749542 428.602386,274.928497 434.098419,279.464264 
	C439.865753,284.223877 444.975250,289.773041 450.503326,294.834045 
	C452.521942,296.682129 453.321899,298.700500 453.320740,301.404053 
	C453.298615,353.896027 453.300079,406.388092 453.434113,458.879791 
	C453.445190,463.217377 451.628906,464.290833 447.733307,464.202484 
	C439.905182,464.024841 432.070190,464.149811 424.238037,464.151947 
	C418.038147,464.153656 417.783264,463.932953 417.783722,457.669128 
	C417.787018,411.009338 417.793854,364.349548 417.839966,317.689789 
	C417.843353,314.249268 417.873657,310.944153 413.854828,309.363037 
	C411.964813,310.572144 412.456635,312.550415 412.455475,314.259460 
	C412.423462,361.919006 412.129852,409.581543 412.604767,457.236359 
	C412.752380,472.048431 411.079712,469.703369 425.385651,470.347443 
	C436.129364,470.831085 446.996796,470.992065 457.801666,470.019897 
	C460.709412,469.758270 462.757690,468.706024 464.621094,466.558929 
	C477.725220,451.459534 490.882690,436.406281 504.072632,421.381714 
	C505.679962,419.550873 506.516602,417.767212 506.516357,415.167542 
	C506.515747,408.832977 510.503845,404.642517 516.820557,403.626770 
	C522.248779,402.753845 527.707275,405.577667 529.483032,411.136322 
	C530.622681,414.703674 532.758911,416.650574 535.704651,418.398438 
	C545.005615,423.917175 554.199280,429.617157 563.515198,435.110107 
	C566.687744,436.980774 574.186584,435.489777 576.596802,432.738281 
	C583.072998,425.345276 589.493835,417.903748 595.968994,410.509857 
	C597.540405,408.715424 598.642517,406.913300 598.707275,404.326294 
	C598.873047,397.704010 601.845703,394.147461 608.314026,393.005005 
	C610.952515,392.538971 612.927795,391.588409 614.658997,389.581543 
	C637.613708,362.971863 660.646973,336.429810 683.570251,309.793060 
	C688.558594,303.996643 688.391602,303.859802 682.420471,298.773499 
	C681.544067,298.026947 680.556763,297.347473 680.283447,295.955811 
	C680.728821,293.819031 682.776001,293.572296 684.398743,292.994293 
	C693.026001,289.921387 701.676819,286.913147 710.346191,283.960724 
	C715.301270,282.273193 716.421997,283.329285 715.246643,288.552704 
	C713.239624,297.472137 711.099731,306.361847 709.126404,315.288513 
	C708.228027,319.352478 706.470703,319.224915 703.651489,316.919647 
	C698.057190,312.345215 697.814087,312.239258 692.986877,317.760284 
	C676.984131,336.063080 661.136841,354.501709 645.220642,372.880249 
	C639.443481,379.551147 633.659241,386.216156 627.840942,392.851074 
	C624.652405,396.487122 621.708618,399.896820 621.964050,405.466980 
	C622.206238,410.749695 617.200684,415.198212 611.052185,415.937866 
	C608.134521,416.288849 606.086548,417.451752 604.275513,419.551239 
	C597.857300,426.991608 591.442749,434.436127 584.931152,441.794434 
	C583.442444,443.476715 583.362915,445.311066 583.297241,447.341187 
	C583.094360,453.607452 579.008301,458.365417 573.246460,459.226318 
	C567.163391,460.135223 561.761047,456.763733 559.914185,450.484619 
	C559.252319,448.234406 558.309143,446.602509 556.309570,445.416962 
	C547.139160,439.979797 538.037659,434.425934 528.842224,429.031860 
	C523.487549,425.890778 515.341858,426.967651 511.318970,431.524597 
	C498.314026,446.255890 485.269806,460.959534 472.614166,475.988281 
	C468.406219,480.985199 464.047821,483.474121 457.312958,483.161774 
	C444.341339,482.560181 431.331085,482.806763 418.337433,482.652496 
	C415.653015,482.620636 413.223755,482.665741 413.095367,486.294525 
	C412.957703,490.187531 415.690155,489.908722 418.216583,489.909119 
	C490.205902,489.919647 562.195251,489.968323 634.184448,489.888275 
	C649.348938,489.871399 658.576782,480.295410 658.665588,464.999054 
	C658.727539,454.334290 658.698242,443.668854 658.674683,433.003784 
	C658.635254,415.156067 649.828796,406.424622 631.846619,406.294464 
	C630.083801,406.281708 628.186279,406.797180 626.053040,405.112091 
	C628.353271,400.757477 631.967651,397.335876 635.097473,393.628662 
	C642.510986,384.847504 650.209778,376.307434 657.630188,367.531952 
	C660.015259,364.711273 662.264587,364.135925 665.868103,365.342651 
	C695.089355,375.128113 711.260193,399.927612 712.881165,430.264252 
	C713.731812,446.185059 713.706665,462.212769 712.361206,478.197083 
	C709.436218,512.947632 683.487366,539.318848 648.762695,542.372925 
	C644.622131,542.737122 640.457764,543.019287 636.304321,543.020203 
	C558.315979,543.036560 480.327576,542.949646 402.339508,543.087280 
	C396.074280,543.098389 391.342560,541.584534 386.929047,536.881531 
	C379.070343,528.507385 370.593048,520.706421 362.237000,512.811218 
	C359.985779,510.684204 359.051086,508.423096 359.051178,505.358368 
	C359.053833,409.705811 359.018250,314.053253 358.884583,218.400833 
	C358.878510,214.049744 360.340881,212.204910 364.688416,212.696198 
	C369.309570,213.218430 370.853180,210.897583 370.780914,206.488678 
	C370.611511,196.161484 370.717072,185.829788 370.711121,174.999908 
M408.640625,270.131622 
	C412.644562,267.223297 411.709564,262.767334 409.937469,259.992889 
	C407.832184,256.696808 402.610260,257.276550 399.917755,258.845306 
	C395.755127,261.270660 398.582581,266.147400 397.869965,270.009216 
	C401.624390,270.462891 404.728210,270.874725 408.640625,270.131622 
M408.849640,220.415115 
	C406.215027,220.341782 403.574249,220.122375 400.947388,220.233124 
	C397.858063,220.363388 397.847443,222.846313 398.021942,224.973755 
	C398.218414,227.368881 396.695709,230.891037 400.458038,231.565689 
	C403.577332,232.125031 407.671600,233.248795 409.815826,230.472244 
	C411.870209,227.812057 411.772247,223.966431 408.849640,220.415115 
M400.929962,250.830353 
	C402.752258,250.858948 404.575897,250.943359 406.396515,250.900406 
	C408.216736,250.857498 410.368713,250.958176 410.638611,248.498657 
	C410.937317,245.776581 411.837860,242.805176 409.647797,240.446884 
	C408.106750,238.787430 399.384338,238.632996 398.837524,240.340515 
	C397.727509,243.806854 396.334839,247.647980 400.929962,250.830353 
M390.818787,266.142303 
	C390.826721,265.310638 390.799774,264.476959 390.848724,263.647705 
	C391.040558,260.395416 390.315826,258.275940 386.287170,258.236084 
	C381.908661,258.192780 381.952393,260.878418 382.067749,263.841583 
	C382.143829,265.795349 381.602051,267.839020 382.908234,269.947937 
	C385.627716,269.292511 389.963318,273.349457 390.818787,266.142303 
M390.816071,223.825867 
	C390.833527,219.760971 387.939911,220.021317 385.239380,220.148071 
	C381.420715,220.327286 381.920715,223.310791 382.040802,225.672729 
	C382.162201,228.060684 381.022675,231.273285 385.200226,231.789780 
	C389.931061,232.374664 390.770935,231.409088 390.816071,223.825867 
M382.032623,242.844711 
	C382.543579,245.540512 380.494720,249.130783 384.266968,250.689453 
	C388.704620,252.523056 391.040497,250.177689 390.843536,244.284409 
	C390.780823,242.406952 391.365631,239.858963 388.546722,239.565842 
	C386.164001,239.318085 383.036133,238.016983 382.032623,242.844711 
M576.468201,447.356415 
	C575.697998,443.393158 573.605225,441.273315 569.464783,442.951752 
	C567.305237,443.827209 566.160156,445.819946 566.635193,448.239166 
	C567.044983,450.325623 568.402161,452.027649 570.499878,452.384369 
	C573.730225,452.933716 575.226501,450.635712 576.468201,447.356415 
M513.454407,415.542725 
	C514.285034,419.297943 516.062866,421.816559 520.365967,420.144165 
	C522.372620,419.364288 523.459839,417.493530 523.207031,415.337463 
	C522.933289,413.001831 521.406433,411.226868 519.076233,410.956329 
	C516.322205,410.636536 514.321228,412.054199 513.454407,415.542725 
M613.441772,407.738678 
	C615.562439,405.274506 615.294373,402.925812 612.903198,400.888733 
	C611.027283,399.290588 609.083191,399.323608 607.178833,401.074188 
	C605.088989,402.995331 605.116150,405.107178 606.605408,407.226166 
	C608.293518,409.627991 610.448364,410.156128 613.441772,407.738678 
z"/>
<path fill="#000000" opacity="1.000000" stroke="none" 
	d="
M733.879456,713.703613 
	C727.253662,723.471680 717.761169,726.824707 706.935303,726.940857 
	C688.944580,727.133972 670.950012,727.063232 652.957764,726.975464 
	C647.737305,726.949951 642.989441,724.468628 638.067627,723.421509 
	C633.375854,722.423340 628.724365,726.915771 623.440491,726.886292 
	C608.797241,726.804626 594.007751,728.527832 579.571533,726.024841 
	C572.168335,724.741211 565.419312,723.210022 558.233337,726.272949 
	C556.195740,727.141541 553.640747,726.977295 551.322754,726.979675 
	C518.002808,727.013733 484.682678,727.068665 451.363098,726.959473 
	C433.849426,726.902100 422.483734,717.987305 419.280731,702.142151 
	C418.920929,700.362305 418.785583,698.508667 418.784363,696.689026 
	C418.766388,669.866455 418.886902,643.043274 418.711884,616.221924 
	C418.680084,611.349304 419.920013,609.082092 425.146545,609.611816 
	C428.773743,609.979553 432.493439,609.930420 436.128815,609.597595 
	C440.863190,609.164246 442.469330,610.777466 442.423431,615.703491 
	C442.196716,640.024902 442.329529,664.349548 442.335236,688.673096 
	C442.335480,689.672668 442.318939,690.672485 442.332733,691.671875 
	C442.441345,699.537415 444.670258,701.844727 452.442047,701.864258 
	C467.602509,701.902283 482.763153,701.867432 497.923737,701.861755 
	C514.583679,701.855469 531.243774,701.882996 547.903564,701.825256 
	C555.437805,701.799133 556.697693,700.498474 556.705688,693.149414 
	C556.719788,680.154602 556.845642,667.157471 556.622986,654.166443 
	C556.551880,650.012939 557.373169,648.088379 562.078430,648.453064 
	C566.693237,648.810608 571.383850,648.248657 576.037781,648.022095 
	C579.397766,647.858459 580.674561,649.097412 580.602417,652.713440 
	C580.343445,665.692505 580.413574,678.678711 580.415771,691.662231 
	C580.417236,700.259583 582.024170,701.842590 590.633606,701.862244 
	C599.463318,701.882385 608.294189,701.933289 617.122559,701.817139 
	C623.246399,701.736572 624.872742,700.110779 624.903687,694.060120 
	C624.971802,680.732666 625.070190,667.401611 624.820740,654.078308 
	C624.734009,649.446472 626.410583,647.789673 630.902771,648.051392 
	C634.885559,648.283325 638.905151,648.209717 642.891052,647.974854 
	C647.552917,647.700195 649.381409,649.419250 649.274780,654.311279 
	C648.991760,667.299927 649.129944,680.298828 649.181519,693.293335 
	C649.209656,700.402588 650.652649,701.850769 657.668091,701.867310 
	C673.328308,701.904297 688.988831,701.903870 704.648987,701.848755 
	C712.631104,701.820618 714.715637,699.690613 714.730286,691.769714 
	C714.753418,679.274719 714.946777,666.774719 714.640137,654.287292 
	C714.517517,649.295166 716.523682,647.821655 721.074097,648.029114 
	C725.395874,648.226074 729.735107,648.087158 734.065735,648.027893 
	C737.321899,647.983276 738.898743,649.213989 738.837769,652.766785 
	C738.583374,667.587158 738.421387,682.410828 738.430420,697.233154 
	C738.434021,703.080383 737.103027,708.429993 733.879456,713.703613 
z"/>
<path fill="#000000" opacity="1.000000" stroke="none" 
	d="
M637.255127,322.000000 
	C637.274963,331.656647 637.235474,340.814087 637.351074,349.969513 
	C637.386902,352.808075 636.521606,355.027252 634.631287,357.176270 
	C626.500427,366.419708 618.423157,375.714142 610.521362,385.153259 
	C607.792175,388.413452 603.598145,388.910187 600.449402,391.422424 
	C597.118225,394.080170 598.025269,399.059052 594.436340,401.364258 
	C592.024475,400.173706 592.810669,398.080444 592.808289,396.438019 
	C592.739014,349.821198 592.759399,303.204163 592.663269,256.587433 
	C592.656555,253.317200 593.690063,251.421768 596.748962,250.073685 
	C608.166443,245.041870 619.475708,239.765076 630.844849,234.622864 
	C636.366089,232.125641 637.218628,232.618042 637.228333,238.588547 
	C637.273132,266.225647 637.252686,293.862823 637.255127,322.000000 
z"/>
<path fill="#000000" opacity="1.000000" stroke="none" 
	d="
M344.009705,762.995850 
	C336.847198,763.050964 330.137024,763.256897 323.608215,761.764343 
	C306.342987,757.817444 296.464111,745.133484 296.150024,726.119812 
	C295.874817,709.460999 296.164948,692.793579 295.998199,676.131958 
	C295.951874,671.505310 297.384796,669.330322 302.333191,669.774841 
	C306.134277,670.116272 310.014130,670.083496 313.818909,669.754333 
	C318.597168,669.340881 320.287354,671.112488 320.212036,675.954895 
	C319.981415,690.781494 320.129883,705.614136 320.136627,720.444397 
	C320.137390,722.110474 320.112518,723.780029 320.206238,725.441956 
	C320.628052,732.920288 325.103851,737.594299 332.584473,737.770081 
	C341.910370,737.989197 351.248901,737.972900 360.575592,737.768372 
	C369.018860,737.583191 373.796112,732.706299 373.868774,724.158386 
	C374.004669,708.163025 373.895172,692.165649 373.901855,676.169067 
	C373.904449,669.960388 374.053497,669.836426 380.417572,669.825378 
	C384.583313,669.818176 388.753662,669.911560 392.913391,669.745667 
	C396.240479,669.613037 397.897919,670.877319 397.885406,674.315491 
	C397.819916,692.309998 398.558716,710.346436 397.572571,728.288818 
	C396.344208,750.638672 382.989624,762.485229 360.504364,762.952881 
	C355.174042,763.063782 349.839844,762.987732 344.009705,762.995850 
z"/>
<path fill="#000000" opacity="1.000000" stroke="none" 
	d="
M541.825806,331.001312 
	C541.829224,329.168976 541.834290,327.836090 541.831848,326.503235 
	C541.807068,313.247437 541.820007,313.278290 553.802673,308.135284 
	C562.523682,304.392120 571.202026,300.549652 579.904114,296.762268 
	C581.391602,296.114899 582.793701,295.015717 584.985046,295.881592 
	C586.454224,304.084229 585.649475,312.583099 585.750122,320.977295 
	C585.999695,341.790253 585.507141,362.611084 585.454895,383.429138 
	C585.433167,392.080383 586.276978,400.718292 585.672729,409.392700 
	C585.486267,412.069519 584.755981,414.056519 582.946899,416.024933 
	C579.570374,419.698853 576.470276,423.628723 573.293945,427.484039 
	C571.029846,430.232086 568.430054,430.711517 565.350159,428.918396 
	C558.442322,424.896637 551.539001,420.866119 544.588867,416.918427 
	C541.736450,415.298248 541.793335,412.692108 541.795837,409.973450 
	C541.820129,383.815887 541.818420,357.658356 541.825806,331.001312 
z"/>
<path fill="#000000" opacity="1.000000" stroke="none" 
	d="
M535.401855,345.110992 
	C535.442993,366.339417 535.442993,387.234985 535.442993,408.130585 
	C529.165527,401.951019 523.458496,396.282593 513.749695,398.895142 
	C504.219391,401.459717 502.504669,409.734711 500.701782,417.741272 
	C497.637634,416.332855 497.997681,414.677460 497.993683,413.249298 
	C497.948151,396.941864 498.042969,380.633026 497.847107,364.327637 
	C497.799805,360.392151 499.188690,358.344269 502.820618,356.838867 
	C512.037781,353.018433 521.066101,348.744568 530.218323,344.763397 
	C531.816223,344.068298 533.669250,342.118591 535.401855,345.110992 
z"/>
<path fill="#000000" opacity="1.000000" stroke="none" 
	d="
M524.009094,595.213318 
	C515.110474,588.673157 511.275238,580.327942 513.861084,569.786865 
	C516.055054,560.843140 521.833069,555.026489 530.854675,552.648376 
	C541.130676,549.939514 551.411011,553.979553 557.262207,563.007935 
	C562.750244,571.476074 562.013123,582.622864 555.451355,590.388428 
	C548.658020,598.428040 537.551636,601.190186 527.878174,597.208923 
	C526.654358,596.705322 525.507996,596.013306 524.009094,595.213318 
z"/>
<path fill="#000000" opacity="1.000000" stroke="none" 
	d="
M534.803101,756.431641 
	C531.704163,754.552795 530.678284,757.281799 529.300110,758.594299 
	C519.764282,767.676331 519.798401,767.712280 510.332031,758.303406 
	C504.711761,752.717285 504.711761,752.717163 510.316040,747.175903 
	C520.027283,737.573669 520.022522,737.578613 529.782227,747.227600 
	C530.825928,748.259338 531.641479,749.606079 534.478516,751.217773 
	C537.462891,747.690247 540.458679,744.172363 543.427429,740.631653 
	C545.401428,738.277405 547.226440,737.825378 549.533997,740.420654 
	C552.512939,743.770935 555.737671,746.908936 558.948120,750.044617 
	C560.874390,751.926086 561.067261,753.543152 559.009766,755.498779 
	C555.758179,758.589355 552.614746,761.797241 549.503052,765.030151 
	C547.207214,767.415344 545.296875,766.911072 543.207214,764.695618 
	C540.589294,761.919861 537.784363,759.320496 534.803101,756.431641 
z"/>
<path fill="#000000" opacity="1.000000" stroke="none" 
	d="
M562.258179,815.195312 
	C561.661682,812.975037 562.737183,812.536255 564.312134,812.528442 
	C566.002197,812.519958 567.700928,812.475525 568.162537,810.290955 
	C567.358765,808.793518 565.773621,809.334900 564.594543,808.900635 
	C560.525330,807.401855 558.902405,804.463684 559.446533,800.310974 
	C559.986938,796.186584 563.256592,793.624939 567.518433,793.730164 
	C571.889954,793.838074 573.635437,796.414124 574.039062,800.420898 
	C574.208496,802.102417 573.613586,804.524780 576.415527,804.531982 
	C578.647339,804.537659 579.414856,802.794556 579.718140,800.818481 
	C580.391541,796.431580 582.829651,793.738220 587.392456,793.895813 
	C591.860291,794.050232 593.679871,797.171387 594.129761,801.203003 
	C594.357056,803.239380 594.781372,804.868286 597.301270,804.693054 
	C599.948059,804.509033 599.855469,802.499451 599.883606,800.660950 
	C599.937134,797.163147 599.885193,793.663757 599.940369,790.166016 
	C599.966858,788.484985 599.998108,786.535278 602.233704,786.368530 
	C604.588928,786.192749 604.814636,788.186523 604.800110,789.842407 
	C604.756470,794.832336 604.637695,799.825806 604.370483,804.808289 
	C604.188599,808.198914 601.689636,809.717468 598.847717,809.121216 
	C593.226318,807.941895 587.662476,811.079407 581.798462,808.475647 
	C579.815613,807.595215 574.784058,807.978821 572.718262,812.463074 
	C570.764709,816.703552 566.718933,817.263733 562.258179,815.195312 
M567.351929,804.592041 
	C570.550598,803.504944 569.959900,801.170410 568.754883,799.176453 
	C567.853333,797.684570 565.996460,797.898743 565.038025,799.260315 
	C563.467407,801.491638 563.646057,803.539185 567.351929,804.592041 
M584.619995,803.557922 
	C585.777710,805.010376 587.135559,805.889038 588.775879,804.370850 
	C590.025818,803.213806 589.819580,801.634644 589.298584,800.201843 
	C588.874695,799.036011 587.933289,798.137146 586.628723,798.531128 
	C584.489929,799.176880 584.158386,800.950500 584.619995,803.557922 
z"/>
<path fill="#000000" opacity="1.000000" stroke="none" 
	d="
M470.074005,805.417358 
	C468.767242,808.885010 466.213440,809.260620 463.409637,809.254944 
	C450.854065,809.229492 438.298187,809.274231 425.742859,809.208496 
	C419.889740,809.177795 418.045166,807.277893 417.928925,801.382996 
	C417.856781,797.724243 417.874329,794.062317 417.930481,790.403076 
	C417.955566,788.768860 417.807098,786.703674 420.114624,786.593506 
	C422.638397,786.473022 422.258942,788.644836 422.299316,790.223755 
	C422.380096,793.383057 422.539551,796.560181 422.304047,799.702820 
	C422.002502,803.726807 423.825104,805.177551 427.592224,804.840637 
	C430.156128,804.611328 432.854828,805.302673 435.430328,803.946838 
	C435.326355,800.245605 432.645203,799.100281 430.266205,797.673828 
	C426.244354,795.262268 426.091858,793.087341 430.158112,790.963379 
	C433.430847,789.253845 436.423676,786.643677 440.747589,786.490051 
	C442.099762,791.870789 436.481018,791.242371 434.689575,794.143188 
	C436.655853,797.085510 438.809296,800.206299 440.844696,803.262085 
	C443.070129,806.603271 447.617218,804.756348 451.129181,804.582336 
	C454.214478,804.429321 453.585358,801.624878 453.799805,799.547424 
	C453.991486,797.690613 453.315338,794.924133 456.320282,795.103394 
	C458.926422,795.258850 458.176270,797.860596 458.209839,799.526978 
	C458.268280,802.427612 458.429840,804.861267 462.366241,804.790955 
	C466.322693,804.720154 465.787170,801.995361 465.821411,799.545288 
	C465.865601,796.384827 465.807129,793.222717 465.863892,790.062622 
	C465.894379,788.364563 465.997375,786.433655 468.358673,786.564575 
	C470.466858,786.681396 470.266937,788.553406 470.269135,790.007385 
	C470.276703,794.997314 470.209778,799.987305 470.074005,805.417358 
z"/>
<path fill="#000000" opacity="1.000000" stroke="none" 
	d="
M400.327057,794.970581 
	C404.104675,795.789307 402.872620,798.600220 402.994995,800.692505 
	C403.142792,803.218323 403.755737,804.856689 406.714417,804.778625 
	C409.491882,804.705444 409.949066,802.996948 409.963287,800.780273 
	C409.987823,796.951172 409.982941,793.120239 410.111206,789.294067 
	C410.164642,787.699463 410.760559,786.199036 412.764893,786.437012 
	C414.548035,786.648804 414.525940,788.200256 414.518768,789.531311 
	C414.492828,794.359375 414.436920,799.187439 414.350677,804.014832 
	C414.287750,807.536072 412.211639,809.186584 408.926331,809.197144 
	C393.486267,809.246643 378.042450,809.383301 362.607300,809.095825 
	C356.549072,808.983032 353.076172,802.376282 355.979126,797.512207 
	C356.621124,796.436523 357.404083,795.668030 358.796356,796.012695 
	C359.773621,796.254517 359.987549,796.978027 360.102295,797.865051 
	C361.050293,805.194336 361.255157,805.352905 368.655823,804.701660 
	C368.970917,804.673889 369.271698,804.483093 369.577972,804.365112 
	C371.535889,795.484863 373.747589,792.675476 378.461761,793.076294 
	C382.574097,793.425842 384.320923,796.292358 385.214233,804.179688 
	C386.535858,805.145813 388.083374,804.793762 389.547394,804.819275 
	C397.304779,804.954712 397.303131,804.939331 398.398590,797.414124 
	C398.546814,796.396118 398.852020,795.464111 400.327057,794.970581 
M380.523193,800.638611 
	C380.139008,798.687561 379.287872,797.090027 376.978943,797.654053 
	C375.414734,798.036072 374.628387,799.444397 374.703217,801.036133 
	C374.787018,802.819214 375.760986,804.218933 377.576691,804.493958 
	C379.880005,804.842773 379.978149,802.820435 380.523193,800.638611 
z"/>
<path fill="#000000" opacity="1.000000" stroke="none" 
	d="
M508.609558,800.038452 
	C507.249542,796.000122 510.123779,794.979004 512.568542,794.239136 
	C516.350891,793.094482 520.206604,793.074707 523.185059,796.360168 
	C525.270447,798.660400 523.782166,800.641052 522.424561,802.608276 
	C522.174072,802.971191 522.181885,803.512390 521.985718,804.320557 
	C525.502563,805.231445 528.945435,804.795959 532.351379,804.653442 
	C534.703613,804.555115 534.542542,802.713440 534.723816,801.014893 
	C535.251587,796.070618 538.017212,793.026978 541.884827,792.938843 
	C545.889343,792.847534 548.248962,795.588074 548.843811,801.020996 
	C549.625122,808.157471 548.650757,809.394470 541.647522,809.194702 
	C533.526489,808.963074 525.374756,809.969971 517.274414,808.376648 
	C514.701355,807.870483 511.818573,808.669678 511.646454,811.773376 
	C511.491119,814.574646 514.230835,814.751038 516.438477,814.901306 
	C517.267822,814.957703 518.103333,814.934998 518.930481,815.009705 
	C520.294312,815.132935 521.752502,815.344910 521.800781,817.094971 
	C521.849426,818.856201 520.450317,819.252747 519.050415,819.248169 
	C516.895996,819.241150 514.702454,819.298035 512.597656,818.922913 
	C509.789032,818.422363 507.729462,816.686829 506.983185,813.858276 
	C506.243103,811.053223 507.051056,808.602783 509.313599,806.696106 
	C510.178223,805.967529 511.028625,805.222046 512.069885,804.325378 
	C510.877991,802.868225 509.842316,801.601990 508.609558,800.038452 
M544.502197,802.879089 
	C544.694885,800.905334 545.029846,798.821899 542.712036,797.807373 
	C541.462463,797.260498 540.493713,798.033936 539.828796,799.048462 
	C539.042297,800.248474 538.987732,801.607178 539.851135,802.727234 
	C541.002502,804.220764 542.368591,805.525146 544.502197,802.879089 
M518.037903,801.316101 
	C518.708862,800.452515 520.031555,799.481323 518.627197,798.482117 
	C517.087708,797.386780 515.287231,797.212952 513.742371,799.138428 
	C514.691833,800.563049 515.091553,802.607422 518.037903,801.316101 
z"/>
<path fill="#000000" opacity="1.000000" stroke="none" 
	d="
M644.443481,632.444092 
	C636.202881,640.515808 638.604248,641.008118 630.019409,632.549316 
	C622.075073,624.721680 622.102417,624.589294 629.968262,616.645142 
	C632.264343,614.326111 634.149902,611.454163 638.487183,609.671204 
	C642.407898,613.889893 646.569519,618.384644 650.752930,622.858948 
	C652.070007,624.267578 651.800842,625.510498 650.501099,626.725647 
	C648.558472,628.541809 646.624084,630.366699 644.443481,632.444092 
z"/>
<path fill="#000000" opacity="1.000000" stroke="none" 
	d="
M715.344238,759.342041 
	C706.674988,767.940491 706.610168,768.005493 698.374023,759.786194 
	C690.550659,751.978882 689.954468,754.209290 698.430176,745.680603 
	C706.427490,737.633118 706.466003,737.671387 714.534424,745.631531 
	C714.770508,745.864441 715.006836,746.097046 715.242920,746.329956 
	C721.719543,752.716492 721.719604,752.716431 715.344238,759.342041 
z"/>
<path fill="#000000" opacity="1.000000" stroke="none" 
	d="
M357.464966,633.570740 
	C361.824768,636.690857 361.374207,639.320068 357.662598,642.331360 
	C354.843719,644.618347 352.377563,647.367615 349.916016,650.058899 
	C347.918152,652.243225 346.251099,652.364136 344.131104,650.176941 
	C340.900757,646.844360 337.518463,643.652344 334.094788,640.516296 
	C332.195404,638.776489 332.154724,637.323364 334.009705,635.535400 
	C337.473633,632.196533 340.873657,628.788147 344.212799,625.324402 
	C346.141144,623.324158 347.719330,623.363647 349.588562,625.458801 
	C352.016083,628.179810 354.662201,630.705811 357.464966,633.570740 
z"/>
<path fill="#000000" opacity="1.000000" stroke="none" 
	d="
M481.380920,803.496277 
	C481.084045,801.080933 481.335541,799.087463 482.389313,797.343201 
	C484.368225,794.067627 487.482941,793.243652 491.027802,793.885925 
	C494.795227,794.568420 495.459747,797.341919 495.346619,800.631958 
	C495.243958,803.618225 495.488251,806.626587 495.232117,809.595215 
	C494.814789,814.431885 490.791443,817.245728 486.067108,816.299500 
	C484.868439,816.059448 483.725159,815.798767 483.655731,814.297180 
	C483.584686,812.759216 484.699921,812.428650 485.915100,812.183594 
	C487.420563,811.879944 489.347595,812.409180 490.142975,809.885559 
	C486.636810,808.782288 482.458221,808.456665 481.380920,803.496277 
M489.447418,804.507385 
	C491.701935,802.647827 491.705872,800.427185 489.677582,798.682068 
	C488.367981,797.555237 486.708069,798.543945 486.021820,800.049683 
	C484.807953,802.713135 486.150513,804.085083 489.447418,804.507385 
z"/>
<path fill="#000000" opacity="1.000000" stroke="none" 
	d="
M311.010773,806.266968 
	C306.858154,806.245605 303.202423,806.255066 299.548004,806.188965 
	C297.967773,806.160400 296.396332,805.804565 296.493378,803.773132 
	C296.576996,802.023499 298.050293,801.795593 299.420807,801.793762 
	C313.377716,801.775024 327.334686,801.775574 341.291595,801.798035 
	C342.864075,801.800537 344.472290,802.087463 344.313690,804.179688 
	C344.155670,806.264526 342.383789,806.205811 340.918243,806.213013 
	C331.115051,806.261536 321.311554,806.255493 311.010773,806.266968 
z"/>
<path fill="#000000" opacity="1.000000" stroke="none" 
	d="
M733.573120,806.283569 
	C720.658569,806.272461 708.192871,806.267578 695.727173,806.235535 
	C694.406067,806.232117 693.065918,806.177979 691.770325,805.947083 
	C690.680237,805.752808 690.076843,804.906311 690.182190,803.767822 
	C690.264832,802.874146 690.822266,802.212097 691.716064,802.043701 
	C692.687500,801.860779 693.687500,801.747803 694.675232,801.746155 
	C707.805786,801.723877 720.936401,801.700806 734.066711,801.755005 
	C735.750305,801.761963 738.193848,801.230530 738.166748,804.036499 
	C738.139709,806.836060 735.701965,806.054260 733.573120,806.283569 
z"/>
<path fill="#000000" opacity="1.000000" stroke="none" 
	d="
M627.230469,808.107300 
	C624.706299,806.246826 623.835754,804.026489 624.141724,801.348877 
	C624.648376,796.915894 628.894653,792.735107 632.204529,793.363708 
	C636.272217,794.136230 639.778748,800.145569 638.632385,804.379395 
	C637.478333,808.641479 633.454285,810.073242 627.230469,808.107300 
M632.093811,804.702087 
	C634.507690,804.014099 634.515381,802.357727 633.788513,800.433960 
	C633.357910,799.294250 632.667175,798.293518 631.306396,798.469604 
	C629.572083,798.694031 628.872131,800.114197 628.603027,801.597168 
	C628.221436,803.700562 629.501770,804.566528 632.093811,804.702087 
z"/>
<path fill="#000000" opacity="1.000000" stroke="none" 
	d="
M661.211426,797.185364 
	C659.911804,793.383972 661.961304,793.235291 664.442444,794.023315 
	C668.591919,795.341248 672.108948,802.877808 670.679016,806.992432 
	C670.249939,808.227112 669.508362,809.046021 668.199707,809.071045 
	C665.210938,809.128357 662.218506,809.151245 659.231323,809.061646 
	C657.985046,809.024292 656.937378,808.414612 657.015259,806.920288 
	C657.076782,805.739685 657.964966,805.267395 658.987976,805.017395 
	C659.309143,804.938843 659.657410,804.961121 659.971924,804.866333 
	C661.864380,804.296265 664.823730,805.976196 665.507874,803.005005 
	C666.186340,800.058899 663.670471,798.671204 661.211426,797.185364 
z"/>
<path fill="#000000" opacity="1.000000" stroke="none" 
	d="
M551.866943,799.944702 
	C551.881775,796.140930 551.867920,792.822937 551.940796,789.506836 
	C551.975891,787.911011 552.466980,786.379089 554.365417,786.337158 
	C556.340698,786.293579 556.804688,787.934875 556.784119,789.464905 
	C556.708557,795.097046 556.504761,800.727783 556.328003,806.358276 
	C556.288574,807.614319 555.847229,808.748657 554.436584,808.869751 
	C552.775330,809.012329 552.050964,807.887085 551.972778,806.399048 
	C551.868530,804.413513 551.900452,802.420898 551.866943,799.944702 
z"/>
<path fill="#000000" opacity="1.000000" stroke="none" 
	d="
M639.955017,816.295044 
	C637.576660,816.087646 635.641968,814.267334 637.614258,813.386719 
	C644.837280,810.161621 641.448792,804.070618 642.285950,799.143250 
	C642.395325,798.499268 642.238770,797.813660 642.310120,797.158813 
	C642.447266,795.901184 642.951721,794.867432 644.416504,794.853088 
	C646.175781,794.835815 646.678711,796.052124 646.647522,797.509644 
	C646.555359,801.824463 646.580017,806.155273 646.188049,810.445862 
	C645.883789,813.776367 643.780884,815.805420 639.955017,816.295044 
z"/>
<path fill="#000000" opacity="1.000000" stroke="none" 
	d="
M649.704102,789.469299 
	C649.827148,787.577148 650.242432,786.294556 652.012451,786.443787 
	C653.704834,786.586609 654.084839,787.957642 654.096802,789.344421 
	C654.144226,794.824646 654.152405,800.305725 654.111206,805.786011 
	C654.099487,807.344971 653.777649,808.969543 651.713196,808.821228 
	C650.012817,808.699097 649.752441,807.242493 649.742188,805.858582 
	C649.702698,800.543884 649.704224,795.228882 649.704102,789.469299 
z"/>
<path fill="#000000" opacity="1.000000" stroke="none" 
	d="
M673.772827,794.142700 
	C674.436646,791.224915 672.191589,786.716736 676.130432,786.778198 
	C680.048462,786.839355 677.958435,791.284119 678.173645,793.743469 
	C678.518311,797.683594 678.259888,801.680298 678.180664,805.651611 
	C678.150757,807.152283 678.015198,808.916199 675.966370,808.858582 
	C673.961365,808.802185 673.871094,807.037537 673.842346,805.543762 
	C673.772156,801.903381 673.790039,798.261353 673.772827,794.142700 
z"/>
<path fill="#000000" opacity="1.000000" stroke="none" 
	d="
M612.340637,802.842529 
	C612.302246,804.478088 612.332275,805.646179 612.199463,806.795410 
	C612.051208,808.078186 611.406006,809.002747 609.939026,808.871887 
	C608.801758,808.770508 608.015442,807.999023 608.004028,806.948669 
	C607.937195,800.815430 607.934509,794.680298 608.019592,788.547363 
	C608.037781,787.232422 609.020569,786.431885 610.378662,786.521057 
	C612.187439,786.639954 612.317993,788.053406 612.325256,789.424561 
	C612.348145,793.738464 612.335815,798.052612 612.340637,802.842529 
z"/>
<path fill="#000000" opacity="1.000000" stroke="none" 
	d="
M478.204468,806.543213 
	C477.842896,808.301208 477.036316,809.087280 475.675049,808.823853 
	C474.320251,808.561646 473.890045,807.409851 473.881287,806.180603 
	C473.841034,800.541504 473.828308,794.901978 473.851349,789.262756 
	C473.857239,787.815552 474.389191,786.556519 476.072296,786.517334 
	C478.260315,786.466370 478.237946,788.179565 478.246979,789.673096 
	C478.280182,795.147156 478.256653,800.621460 478.204468,806.543213 
z"/>
<path fill="#000000" opacity="1.000000" stroke="none" 
	d="
M676.684021,810.279480 
	C678.682983,810.704285 679.826477,811.493286 678.985901,813.411926 
	C678.753296,813.942871 678.168335,814.319519 677.744995,814.766907 
	C679.438232,816.172241 681.074280,817.831238 677.700928,818.867126 
	C675.808167,819.448425 673.018433,820.085571 671.909790,817.750549 
	C670.876892,815.575073 672.132507,813.219788 673.695496,811.446655 
	C674.275269,810.789001 675.441406,810.648254 676.684021,810.279480 
z"/>
<path fill="#000000" opacity="1.000000" stroke="none" 
	d="
M545.518555,787.476685 
	C547.522705,789.516907 546.760986,791.907043 544.931396,791.657837 
	C542.458191,791.321106 539.088135,793.937927 537.438293,790.313538 
	C536.537231,788.334167 537.941589,787.234619 539.901489,787.154358 
	C541.665344,787.082153 543.438538,787.238159 545.518555,787.476685 
z"/>
<path fill="#000000" opacity="1.000000" stroke="none" 
	d="
M630.809692,791.872192 
	C628.294983,792.706665 626.618042,792.084229 626.736755,789.643188 
	C626.844238,787.434021 628.613525,787.208923 630.472656,787.834290 
	C630.785278,787.939514 631.138672,788.086121 631.441162,788.032471 
	C633.405457,787.684265 636.004639,786.883545 635.858948,789.993164 
	C635.719910,792.962341 633.012573,791.917542 630.809692,791.872192 
z"/>
<path fill="#000000" opacity="1.000000" stroke="none" 
	d="
M404.878632,812.929810 
	C402.964172,817.606628 399.298981,814.762512 396.515900,814.903992 
	C395.167267,814.972595 394.998230,811.785461 396.641296,811.631592 
	C399.289429,811.383545 402.414673,809.807922 404.878632,812.929810 
z"/>
<path fill="#000000" opacity="1.000000" stroke="none" 
	d="
M451.033936,790.029114 
	C453.200165,786.453735 456.395905,788.036316 458.979736,788.397949 
	C460.635773,788.629700 460.535248,791.512268 458.956696,791.656128 
	C456.377411,791.891235 453.165314,793.731201 451.033936,790.029114 
z"/>
<path fill="#000000" opacity="1.000000" stroke="none" 
	d="
M377.202026,791.897339 
	C375.052063,790.566895 374.399445,789.142090 376.390076,787.554565 
	C377.480896,786.684509 378.673981,787.068115 379.360352,788.097595 
	C380.778442,790.224548 379.621277,791.355164 377.202026,791.897339 
z"/>
</svg>